<svg xmlns="http://www.w3.org/2000/svg" viewBox="0 0 400 169">
  <path d="M253 1l-1 1-2 1a69 69 0 00-6 7 157 157 0 00-6 7 403 403 0 01-29 33v1h-1l-2-2h-1l-4-3a24 24 0 00-5-2l-1-1-4-2c-2-1-3-2-7-2-3 0-3 0-8 5a26 26 0 01-1 2 100 100 0 01-5 7 156 156 0 01-6 8h-1l-1-1h-1a15 15 0 00-3-2l-2-2-5-2-1-2-3 2v1a19 19 0 00-3 4l-1 2-1 1v1l-1 1a23 23 0 00-3 4 129 129 0 00-3 6 75 75 0 01-6 8 77 77 0 01-5 8l-1 1-1 1-1-1v-1l-2-4a107 107 0 00-19-19 270 270 0 00-11-9c-5-4-6-5-9-5-3 1-5 2-8 6l-1 1a78 78 0 00-6 10 128 128 0 01-3 4 158 158 0 01-34 32l-2 1a252 252 0 00-13 12 50 50 0 01-5 10l-1 1a320 320 0 01-7 15h1a90 90 0 0010-10l6-4c2 0 4-1 5-3l4-2 2-1a24 24 0 012-4 85 85 0 0119-20l5-3v1a98 98 0 00-3 13v-2l-1-8a651 651 0 01-17 19c-3 5-2 5-11 9-7 3-7 4-10 6-2 2-4 4-4 6v1l1 3 4-1a293 293 0 0014-7l-7 6c-3 3-3 3 3 2l4-1 8-1 2 1c0 2 1 3 3 3 4-1 6-3 8-9a110 110 0 005-15 38 38 0 002-9v-4l3-13v6a288 288 0 00-7 34c-2 4-3 10-2 13l3-3 7-7v4l-1 13 2 1 2-6a77 77 0 014-20 82 82 0 018-14c2-4-3-2-6 2a56 56 0 01-3 5v-17c2-13 2-20 0-22v-1l1-1v-1l4-7c2-7 2-8-2-4a385 385 0 01-20 23 53 53 0 01-7 4l1-1a156 156 0 0035-42l1-2v1l2 3 1 2v21l1-12v-6a181 181 0 017 27l3 10 1-5a84 84 0 00-2-15l-1-1h1l1 2a39 39 0 002 5l1 2a118 118 0 016 16 191 191 0 014 13 470 470 0 0112 46l-1-2a345 345 0 00-15-20c-3-5-10-14-14-17-4-4-5-4-5-2 0 4-2 11-6 17l-4 6c-4 7-5 8-4 9l7 1 10 1 7 4c1 2 4 5 7 5l2 1 13 1 2 1h4v-1c2-3 0-13-4-27a260 260 0 00-9-28h6l-2-8c-3-12-3-14-1-12v1h1l1 3a2365 2365 0 006 8l2 3 1 1v1l1 1a21 21 0 013 5l2 3a465 465 0 0010 15 203 203 0 01-7-14v-1l1 1 5 4a245 245 0 0013 16 32 32 0 001 2l4 4-3-6v-1a252 252 0 01-12-19l-2-4a65 65 0 00-5-6 45 45 0 01-2-4l-1-1a18 18 0 01-1-3l-1-1-1-1-2-4-1-1 1-1 2-2a130 130 0 0010-10v-1l2 1 1 2a87 87 0 009 5l2 2 18 16 5 6 3 3a47 47 0 014 8c2 6 5 9 7 9s2 0 3-3a107 107 0 016-8l2-3h1v2l1 1v-2l-1-4c0-2-1-2-5 2-7 8-7 8-9 7l-3-6a29 29 0 00-3-7l-1-1-3-2c-2-1-6-4-7-8a54 54 0 00-4-5v-1l-1-1-1-1a373 373 0 00-5-10l-2-4h1c2 0 2-2 1-3l-2-1-2-2-1-6v-4c-1-3-1-3 1-1l13 13c3 3 5 4 6 3h1v1l4 6 1 4v1h5a22 22 0 00-3-7 51 51 0 00-5-7 66 66 0 01-4-6l-3-4c-2-2-1-3 1-6l1-1v-1l1-1 1-1a148 148 0 016-8l3-2 3-2a22 22 0 012 6v2l2 4a24 24 0 007 6 437 437 0 008 6l1 1v9a368 368 0 00-3 8c-3 6-2 9 2 12 1 1 2 0 1-2-2-4-2-5 0-9v-1l1 3 8 10 2 3a143 143 0 0012 23 142 142 0 005 9 21 21 0 006 5h3a526 526 0 01-6-14 107 107 0 00-9-16l-1-1h1a90 90 0 016 4 215 215 0 006 4c2 2 4 2 5 0l2-3c1-2 3-3 3-5l1-3 1-1v-1l2-3a404 404 0 016-10l1-2a320 320 0 0117-27 46 46 0 003-5 176 176 0 0110-15l1-3a41 41 0 014-7l1-1 3-3-2 2a610 610 0 01-11 23l-1 2-2 5-3 5a861 861 0 00-9 21c-3 5 2 4 7-2l2-3c1-2 1-2 1 0a17 17 0 00-1 2l-1 2a77 77 0 01-2 6l-3 8c0 3 1 3 6 4h4l1 2c0 3 2 2 3-2a72 72 0 010-8l2-7 2-5a426 426 0 013-6v13a163 163 0 00-2 5v2c1 1 2 0 3-3l1-1v1c3 7 8 10 11 9 2-1 2-4 0-4l-2-4 1-7 2-8c3-7 4-8 7-5 2 2 5 1 6-1 2-4 1-8-1-14a134 134 0 00-8-16l-2-5-2-7-1-1 1-1a548 548 0 005 15c1 2 2 3 5 4l3 2c2 1 2 2 0 4v3c2 2 6-1 6-5l-2-3a38 38 0 00-7-8l-2-1 1-9v-8c-2 0-6-7-6-11l4 1a151 151 0 002 2l-2-1h-1v1l2 4 1 1v1c2 2 2 5 2 12l1 6a26 26 0 003 5c1 3 3 4 8 8l4 4c8 7 9 9 10 16v4l1 1v-3c1-10 1-14-2-19a40 40 0 01-5-10l-1-2-3-8-3-4-2-7 7 9a55 55 0 016 13l2 1h1l1 1a53 53 0 013 2 182 182 0 0114 13c0 3-1 4-2 4-5 3-6 4-4 6l1 1 2 2 6 5c8 4 9 5 12 12h1v-2c1-2 0-12-1-14l-1-3v-2l1 1a96 96 0 008 6 278 278 0 0113 9 1913 1913 0 01-70-68 440 440 0 01-10-6c-5-3-9-5-12-5l-2 2a29 29 0 01-3 4 87 87 0 01-9 11l-1 1-2 3v1l-2 1v1l-2 3-7 14-3 4-5 4v1l-1 1v1l-1 2a170 170 0 00-5 12 700 700 0 00-8 12l-3 4-1 1-3 2c-4 1-5 1-6-1a188 188 0 01-6-12l-8-9-11-11-7-6 1-1 1-2a67 67 0 016-7 1448 1448 0 005-6l1-1v1l2 3-2 5-2 4 1-1 1-1 3-6c1-1 2 0 3 3l1 7 2 5c0 2 1 3 2 2l2-11a558 558 0 013-16c0-3 2-2 3 1l2 3 1 1c1 1 1 1 1-2l-1-2c-1-2-2-3-1-7 0-3 0-4 2-4l1 4c1 5-1 21-2 24l-3 10v2l1-1 1-1a96 96 0 003-10 265 265 0 014-12 124 124 0 013-11l8-7 4-3c1-1 1 0 2 2 3 5 2 5 5 7l6 6v-2l-2-5c-4-3-4-4-5-6a59 59 0 00-7-11 34 34 0 00-9-9l-6 1m7 3a364 364 0 0010 11h-1l-7-2-2-1c-2-2-3-4-1-8V3s0-1 0 0l1 1m-13 6l-1 2v1a25 25 0 01-4 7l-1 1c-2 1-2 0 0-2l1-2 1-1a144 144 0 004-6m-2 8h-1v1-1h1m60 6c1 0 0 0 0 0-1-1-1-1 0 0m-67 1a24 24 0 01-2 2l2-2m5 0l-1 2h-1l1-1 1-1m-12 8a19 19 0 00-1 3l-1 1v-2l3-4-1 2m75 1v2l-2 3v-1l2-6v2m1 10l-1 2v2a555 555 0 00-2 14c1 1 1 1 3-1h1l-3 5-1 1-3 3v-3a110 110 0 001-9l1-4a154 154 0 014-10m-118 2a119 119 0 004 1l10 4 3 1 1 1h-1l-9-3a32 32 0 01-6-1l-3-2-1-2 2 1m2 7l2 1c1 3 4 6 7 7l3 1c0 1 0 2-1 1v-1l-2-1a74 74 0 00-7-4 10 10 0 01-3-4h1m136 3l1 2c0 2 0 2-1 1-2-1-2 0-1 1v2l1 4c1 4 0 6-3 9-5 4-6 5-5 13 0 6 0 7-2 5l-6-5 3 3 1 2c1 1 1 4-1 12-2 9-2 11 0 14a23 23 0 013 4c1 2 1 3-2 4l-2 1c0 3 5 3 7 0 1-1 1-6-1-7v-1a19 19 0 00-2-3l-1-1-1-1v-2a10 10 0 012-2 98 98 0 013-6c5-8 6-11 5-11-2-1-3-4-1-4 1-1 6 4 9 9 5 6 6 12 6 20 0 4 0 5 1 4v-1c1-3 2-4 2-10v-5l-1-2a33 33 0 00-3-5l-1-1-1-1c-5-8-6-13-6-17 0-2 1-3 4-5 2-2 3-3 1-9l-4-6-2-3-2-2m-173 2a31 31 0 019 7l-1-1-1-1-2-1-7-3-1-1v-1h1l2 1m61 4h-1v-1l1 1m-68 1l-3 7v-1l1-2 2-5v1m-57 5l5 11c1 4 1 4-1 0a314 314 0 00-4-11m247 1v2l1 5-1 8c-1 4 3 10 5 8l1-5 1-3h5c2 0 2 0 3 8 2 6 2 9 1 9h-1c-2-1-2 0-1 2 1 4 4 6 6 4a64 64 0 00-5-30l-3 3c-3 3-8 0-9-6l-3-5m-117 3c-3 3-4 9-3 13l4 8 1 3-1-1-3-5c-3-7-3-8-2-12l3-8 1-1v3m82 2a142 142 0 01-3 9l2-7a252 252 0 001-2m64 0l5 5a111 111 0 001 1l-8-7 2 1m-141 9c0 1 0 1 0 0l-2-4 2 4m25 14l-1 1c-1 1-1 1-2-1h1l2-1h1l-1 1M31 112l-2 1-2 2a134 134 0 00-6 6l-1 1 1-1a62 62 0 017-8l3-1"/>
</svg>
