<svg xmlns="http://www.w3.org/2000/svg" viewBox="-68 0 512 512.001">
  <path d="m330.78125 62.871094h-49.828125v-7.871094c0-30.328125-24.671875-55-55-55h-76.125c-30.328125 0-55 24.671875-55 55v7.871094h-49.828125c-24.8125 0-45 20.1875-45 45v32.867187c0 8.285157 6.714844 15 15 15h12.050781l20.128907 342.144531c.464843 7.925782 7.03125 14.117188 14.972656 14.117188h251.480468c7.941407 0 14.507813-6.191406 14.972657-14.117188l20.125-342.144531h12.054687c8.28125 0 15-6.714843 15-15v-32.867187c-.003906-24.8125-20.191406-45-45.003906-45zm-205.953125-7.871094c0-13.785156 11.214844-25 25-25h76.125c13.785156 0 25 11.214844 25 25v7.871094h-126.125zm-94.828125 52.871094c0-8.273438 6.730469-15 15-15h285.78125c8.273438 0 15 6.726562 15 15v17.867187h-315.78125zm269.488281 374.128906h-223.191406l-19.195313-326.261719h261.578126zm0 0"/>
  <path d="m187.890625 451c8.285156 0 15-6.714844 15-15v-235c0-8.285156-6.714844-15-15-15-8.28125 0-15 6.714844-15 15v235c0 8.285156 6.71875 15 15 15zm0 0"/>
  <path d="m247.253906 450.984375c.214844.011719.433594.015625.648438.015625 7.988281 0 14.632812-6.304688 14.976562-14.363281l10-235c.351563-8.277344-6.074218-15.273438-14.351562-15.625-8.265625-.34375-15.269532 6.074219-15.621094 14.351562l-10 235c-.355469 8.277344 6.070312 15.269531 14.347656 15.621094zm0 0"/>
  <path d="m127.878906 451c.214844 0 .433594-.003906.652344-.015625 8.273438-.351563 14.699219-7.34375 14.347656-15.621094l-10-235c-.351562-8.277343-7.34375-14.699219-15.625-14.351562-8.277344.351562-14.699218 7.347656-14.347656 15.625l10 235c.339844 8.0625 6.984375 14.363281 14.972656 14.363281zm0 0"/>
</svg>
