<svg xmlns="http://www.w3.org/2000/svg" viewBox="0 0 0.268 0.268">
  <path
    d="M0.241 0.089l-0.047 0c-0.014,0 -0.02,-0.017 -0.011,-0.027l0.012 -0.011c-0.018,-0.013 -0.04,-0.02 -0.061,-0.02 -0.059,0 -0.105,0.049 -0.103,0.106l-0.031 0.001c-0.002,-0.075 0.058,-0.138 0.134,-0.138 0.029,0 0.059,0.01 0.083,0.029l0.013 -0.013c0.01,-0.01 0.026,-0.003 0.026,0.011l0 0.046c0,0.009 -0.007,0.016 -0.015,0.016zm-0.214 0.09l0.046 0c0.014,0 0.021,0.017 0.011,0.026l-0.011 0.012c0.018,0.013 0.039,0.02 0.061,0.02 0.058,0 0.104,-0.049 0.103,-0.106l0.031 -0.001c0.002,0.075 -0.058,0.138 -0.134,0.138 -0.03,0 -0.059,-0.01 -0.083,-0.029l-0.013 0.013c-0.01,0.01 -0.027,0.002 -0.027,-0.011l0 -0.047c0,-0.008 0.007,-0.015 0.016,-0.015z"/>
</svg>
