<svg xmlns="http://www.w3.org/2000/svg" viewBox="0 0 512 512">
  <path
    d="M257,0C117.104,0,0,113.029,0,255c0,140.742,116.009,257,257,257c142.13,0,255-117.257,255-257    C512,114.061,397.951,0,257,0z M257,482.2C131.832,482.2,29.8,380.168,29.8,255C29.8,130.935,131.832,29.8,257,29.8    c124.065,0,225.2,101.135,225.2,225.2C482.2,380.168,381.065,482.2,257,482.2z"/>
  <path
    d="M257,60c-41.452,0-82.276,12.827-114.952,36.117c-7.551,5.382-8.453,16.27-1.9,22.821l252.914,252.914    c6.56,6.562,17.442,5.645,22.821-1.9C439.173,337.277,452,296.453,452,255C452,147.477,364.523,60,257,60z M401.002,337.367    L174.634,110.999C199.283,97.372,227.929,89.8,257,89.8c90.981,0,165.2,74.219,165.2,165.2    C422.2,284.072,414.628,312.718,401.002,337.367z"/>
  <path
    d="M371.852,393.062L118.938,140.147c-6.525-6.527-17.42-5.676-22.821,1.9C72.489,175.196,60,214.254,60,255    c0,107.493,89.147,197,197,197c40.744,0,79.803-12.489,112.952-36.117C377.503,410.501,378.405,399.613,371.852,393.062z M257,422    c-90.523,0-167.2-76.477-167.2-167c0-28.45,7.395-55.924,21.147-80.417l226.47,226.47C312.923,414.804,285.449,422,257,422z"/>
</svg>
